HIERARCHY
ROOT Hips
{
	OFFSET -3.958830 18.904000 13.208200
	CHANNELS 6 Xposition Yposition Zposition Zrotation Yrotation Xrotation 
	JOINT LHipJoint
	{
		OFFSET 0.000000 0.000000 0.000000
		CHANNELS 3 Zrotation Yrotation Xrotation
		JOINT LeftUpLeg
		{
			OFFSET 1.800000 -1.400000 0.085000
			CHANNELS 3 Zrotation Yrotation Xrotation
			JOINT LeftLeg
			{
				OFFSET 2.215000 -6.000000 0.000000
				CHANNELS 3 Zrotation Yrotation Xrotation
				JOINT LeftFoot
				{
					OFFSET 2.500000 -6.900000 0.000000
					CHANNELS 3 Zrotation Yrotation Xrotation
					JOINT LeftToeBase
					{
						OFFSET 0.200000 -0.500000 1.950000
						CHANNELS 3 Zrotation Yrotation Xrotation
						End Site
						{
							OFFSET 0.000000 0.000000 0.000000
						}
					}
				}
			}
		}
	}
	JOINT RHipJoint
	{
		OFFSET 0.000000 0.000000 0.000000
		CHANNELS 3 Zrotation Yrotation Xrotation
		JOINT RightUpLeg
		{
			OFFSET -1.800000 -1.400000 0.085000
			CHANNELS 3 Zrotation Yrotation Xrotation
			JOINT RightLeg
			{
				OFFSET -2.215000 -6.000000 0.000000
				CHANNELS 3 Zrotation Yrotation Xrotation
				JOINT RightFoot
				{
					OFFSET -2.500000 -6.900000 0.000000
					CHANNELS 3 Zrotation Yrotation Xrotation
					JOINT RightToeBase
					{
						OFFSET -0.200000 -0.500000 1.950000
						CHANNELS 3 Zrotation Yrotation Xrotation
						End Site
						{
							OFFSET 0.000000 0.000000 0.000000
						}
					}
				}
			}
		}
	}
	JOINT LowerBack
	{
		OFFSET 0.000000 0.000000 0.000000
		CHANNELS 3 Zrotation Yrotation Xrotation
		JOINT Spine
		{
			OFFSET -0.087000 1.940000 -0.288900
			CHANNELS 3 Zrotation Yrotation Xrotation
			JOINT Spine1
			{
				OFFSET 0.000000 1.950000 0.060000
				CHANNELS 3 Zrotation Yrotation Xrotation
				JOINT Neck
				{
					OFFSET 0.000000 0.000000 0.000000
					CHANNELS 3 Zrotation Yrotation Xrotation
					JOINT Neck1
					{
						OFFSET 0.000000 1.600000 0.340000
						CHANNELS 3 Zrotation Yrotation Xrotation
						JOINT Head
						{
							OFFSET 0.000000 1.667000 -0.240000
							CHANNELS 3 Zrotation Yrotation Xrotation
							End Site
							{
								OFFSET 0.000000 0.000000 0.000000
							}
						}
					}
				}
				JOINT LeftShoulder
				{
					OFFSET 0.000000 0.000000 0.000000
					CHANNELS 3 Zrotation Yrotation Xrotation
					JOINT LeftArm
					{
						OFFSET 2.700000 1.550000 -0.730000
						CHANNELS 3 Zrotation Yrotation Xrotation
						JOINT LeftForeArm
						{
							OFFSET 5.450000 0.000000 0.000000
							CHANNELS 3 Zrotation Yrotation Xrotation
							JOINT LeftHand
							{
								OFFSET 3.450000 0.000000 0.000000
								CHANNELS 3 Zrotation Yrotation Xrotation
								JOINT LeftHandIndex1
								{
									OFFSET 0.750000 0.000000 0.000000
									CHANNELS 3 Zrotation Yrotation Xrotation
									End Site
									{
										OFFSET 0.000000 0.000000 0.000000
									}
								}
							}
						}
					}
				}
				JOINT RightShoulder
				{
					OFFSET 0.000000 0.000000 0.000000
					CHANNELS 3 Zrotation Yrotation Xrotation
					JOINT RightArm
					{
						OFFSET -2.700000 1.550000 -0.730000
						CHANNELS 3 Zrotation Yrotation Xrotation
						JOINT RightForeArm
						{
							OFFSET -5.450000 0.000000 0.000000
							CHANNELS 3 Zrotation Yrotation Xrotation
							JOINT RightHand
							{
								OFFSET -3.450000 0.000000 0.000000
								CHANNELS 3 Zrotation Yrotation Xrotation
								JOINT RightHandIndex1
								{
									OFFSET -0.750000 0.000000 0.000000
									CHANNELS 3 Zrotation Yrotation Xrotation
									End Site
									{
										OFFSET 0.000000 0.000000 0.000000
									}
								}
							}
						}
					}
				}
			}
		}
	}
}
MOTION
Frames: 14
Frame Time: 0.016667
-0.239030 17.473860 -12.595400 -2.992110 19.494425 0.192518 -15.114406 13.213340 2.987595 0.340046 -1.366482 -11.462802 -4.162386 4.691126 11.933564 -0.161534 3.300712 3.504987 0.161850 0.091080 0.032810 18.146585 -11.470785 2.938740 -6.696286 1.719054 -13.819405 11.937342 -6.594291 17.658274 -0.059061 -4.082903 2.999410 0.148070 0.203740 0.070740 -4.055613 -0.329816 -7.696786 15.219285 -0.762628 15.295753 -5.770303 2.046471 8.813919 8.427658 -2.544433 -10.312587 -4.698913 -4.396548 33.647705 -4.219540 -5.466800 -1.306800 -14.268355 -6.322757 5.758899 -26.925711 9.963533 -2.808334 -6.315181 -2.081239 -0.808676 -3.983567 2.957472 -0.069410 0.181650 -0.176240 0.115370 -2.293535 12.746942 3.527080 -32.761307 10.900499 -10.071253 -74.902516 9.664126 -7.195553 2.596404 -1.856718 -0.049110 0.099040 -0.015560 0.007030 
-0.239080 17.459590 -12.619570 -1.749476 21.154677 1.747934 -15.100253 12.994185 3.072620 -1.199864 -1.644735 -11.867943 -4.440548 4.437131 10.622617 -0.178171 3.143516 3.569239 0.129050 0.042980 0.025050 18.194225 -11.527333 2.918214 -6.281870 0.882697 -12.859635 9.312342 -5.158105 12.241148 0.021752 -3.576741 3.200184 0.120320 0.204330 0.072780 -4.170567 -0.000682 -7.715509 15.088781 -0.582240 13.832339 -8.330590 2.624896 8.534044 9.039337 -1.346072 -10.552655 -2.588171 -5.668820 33.253464 -4.426420 -5.880560 -0.341100 -13.300533 -6.572249 6.056833 -24.362988 10.264020 -2.575268 -4.888614 -2.547297 -0.697233 -3.992705 2.962048 -0.075060 0.190680 -0.189900 0.100700 -4.660515 11.891314 3.852210 -35.557905 7.275702 -8.068321 -60.587884 8.797785 -4.744513 2.678761 -1.827903 -0.056300 0.078990 -0.004930 -0.000830 
-0.233320 17.451820 -12.628440 -1.081918 22.397106 2.665341 -15.094838 12.815708 3.098891 -2.011751 -1.707990 -11.754384 -4.677126 4.250166 9.200052 -0.195992 3.064353 3.614058 0.103190 0.008510 0.016540 18.237164 -11.514652 2.953860 -5.831327 0.510338 -11.926007 7.611420 -4.336202 8.545689 0.043681 -3.396576 3.287260 0.108450 0.221280 0.069540 -4.246977 0.227832 -7.749221 15.155023 -0.398801 12.742181 -9.880090 2.961610 8.313406 9.546486 -0.653174 -10.588766 -1.257316 -6.466367 32.895437 -4.736230 -6.128610 0.265760 -12.451394 -6.209879 5.954262 -22.553902 10.226079 -2.351611 -4.319557 -2.462504 -0.675151 -4.021118 2.938683 -0.081480 0.207820 -0.207550 0.094070 -6.603105 10.973375 4.062671 -36.760391 5.343392 -6.142216 -49.594933 9.288164 -3.654426 2.714510 -1.797602 -0.073360 0.084140 0.007140 -0.005910 
-0.234230 17.447370 -12.629320 -0.185195 24.763956 3.540597 -15.105165 12.641725 3.115578 -2.734271 -1.743857 -11.580351 -4.872570 4.067995 7.751324 -0.204772 2.999669 3.651789 0.082380 -0.019730 0.008720 18.263425 -11.484124 2.989725 -5.863747 0.309897 -11.028393 6.772983 -3.921376 6.026109 0.037395 -3.399274 3.299424 0.097790 0.235980 0.073280 -4.304045 0.422094 -7.780204 14.814843 -0.483091 11.586467 -11.197028 2.893577 8.308817 10.009254 0.132291 -10.582501 0.248853 -7.308478 32.653317 -5.081620 -6.451060 0.958390 -11.894930 -5.974080 5.958182 -21.324553 10.452008 -2.303362 -1.974196 -3.114907 -0.545781 -4.050591 2.938598 -0.094380 0.225810 -0.223720 0.088920 -8.095025 10.113277 4.164801 -37.225302 4.426916 -4.523719 -41.055396 9.886637 -2.870590 2.723208 -1.787923 -0.081540 0.080790 0.016560 -0.007150 
-0.242030 17.456190 -12.634560 0.380063 26.571010 3.870969 -15.099724 12.524615 3.120217 -3.081912 -1.744706 -11.369329 -5.009002 3.971082 6.876494 -0.192940 2.959631 3.672874 0.059920 -0.048700 -0.007350 18.291461 -11.487124 3.022289 -5.660957 0.179647 -10.242589 5.815621 -3.635825 4.469416 0.024973 -3.410081 3.308800 0.074990 0.239060 0.072950 -4.387323 0.593889 -7.822080 14.881132 -0.524287 11.078210 -12.093187 2.971064 8.621107 10.180880 0.510292 -10.866781 0.958851 -7.723045 33.239207 -5.018670 -6.858160 1.675890 -11.144739 -6.139273 6.207462 -20.925745 10.785819 -2.353863 -0.909148 -3.200354 -0.491036 -4.056142 2.935299 -0.095030 0.225430 -0.227840 0.086080 -9.181886 10.102171 4.446799 -36.889098 4.416720 -4.032339 -36.313618 9.312451 -2.319647 2.736160 -1.772996 -0.081610 0.072750 0.023770 -0.003410 
-0.263310 17.474260 -12.653190 0.491909 26.835816 3.706853 -15.093988 12.497220 3.112900 -3.112002 -1.813106 -11.576841 -5.020055 3.999435 7.206427 -0.164418 2.936105 3.679141 0.044330 -0.064720 -0.027130 18.301266 -11.499062 3.060166 -5.235999 0.090243 -9.562211 5.075008 -3.461992 3.614677 0.014345 -3.415543 3.319915 0.051680 0.239180 0.071750 -4.417995 0.662153 -7.858361 14.899326 -0.338545 11.442952 -11.958250 3.266632 9.021585 10.051790 0.351844 -11.233465 0.658234 -7.530565 34.270108 -4.675180 -7.161410 2.395650 -10.643333 -6.380681 6.453953 -21.369921 11.101422 -2.438713 -1.168469 -2.485171 -0.503314 -4.053957 2.930163 -0.100460 0.217450 -0.226580 0.089220 -9.370172 10.695479 4.748565 -36.363788 5.360755 -4.644199 -35.939392 8.152813 -2.182225 2.758218 -1.757696 -0.069740 0.062260 0.024980 0.009460 
-0.285690 17.497150 -12.668370 0.208095 27.174137 3.051218 -15.087681 12.500481 3.080166 -2.750222 -1.729081 -11.246496 -4.841736 3.992846 7.210135 -0.135709 2.931448 3.678950 0.034750 -0.069660 -0.046280 18.310587 -11.505531 3.101195 -4.765298 -0.032773 -8.688876 4.798542 -3.407992 3.031891 -0.005710 -3.454347 3.319545 0.036580 0.237830 0.063740 -4.465428 0.702952 -7.879210 15.138358 -0.201165 11.823301 -11.163363 3.413641 9.638538 9.773552 0.162680 -11.473052 0.239629 -7.140711 36.019096 -4.216440 -7.557930 2.964940 -10.451193 -6.622268 6.649126 -22.326800 11.268362 -2.549631 -1.643491 -1.779335 -0.527102 -4.045088 2.916465 -0.101200 0.204290 -0.221910 0.093730 -8.888228 11.176667 4.922397 -35.236071 7.214541 -5.793331 -39.301143 8.264952 -2.645370 2.768751 -1.751682 -0.060140 0.062590 0.025960 0.023160 
-0.308120 17.508810 -12.686600 -0.241492 27.396885 2.281811 -15.077824 12.516020 3.035221 -2.449089 -1.684593 -11.099680 -4.370223 3.968922 7.670726 -0.114605 2.906317 3.677011 0.047380 -0.054220 -0.038950 18.320664 -11.501042 3.160978 -4.448529 -0.161396 -7.655667 5.114223 -3.446911 2.417678 -0.045710 -3.528453 3.300500 0.028720 0.216680 0.063010 -4.523424 0.721033 -7.897055 15.459932 -0.132520 12.324293 -10.025312 3.412945 10.303235 9.338244 -0.103312 -11.645920 -0.339129 -6.817656 37.974618 -4.121820 -7.863720 3.075580 -10.585503 -6.856192 6.839918 -23.476060 11.705492 -2.737400 -1.266452 -1.146130 -0.511966 -4.031708 2.908432 -0.093930 0.182100 -0.201540 0.096110 -7.747453 11.648179 5.005349 -32.907259 9.506552 -7.302901 -46.620001 9.352059 -3.854092 2.766195 -1.766723 -0.039400 0.056930 0.015780 0.030600 
-0.320530 17.504100 -12.682250 -0.483441 28.242096 1.811458 -15.092653 12.495323 2.986379 -2.205711 -1.608706 -10.869144 -4.026751 3.938994 7.861850 -0.103532 2.899722 3.673148 0.062000 -0.034230 -0.031140 18.313570 -11.491879 3.213374 -4.368624 -0.279415 -6.618203 5.746780 -3.528472 1.805367 -0.083274 -3.651746 3.257276 0.035190 0.205340 0.069620 -4.524354 0.800194 -7.875078 15.196494 0.533147 12.281356 -7.911886 3.603075 10.603117 8.873546 -0.001321 -11.470150 -0.184411 -7.217311 39.046359 -4.595630 -8.342450 3.199440 -11.348312 -6.689369 6.636012 -24.665839 11.821664 -3.087929 -0.648741 -2.749556 -0.443683 -4.009350 2.931056 -0.103940 0.177660 -0.193340 0.098550 -5.873531 11.516743 4.864747 -29.529481 11.387276 -8.167546 -56.904871 12.456588 -6.346430 2.716916 -1.797764 -0.021960 0.049960 0.007720 0.038180 
-0.325060 17.493560 -12.662640 -0.689286 29.981972 1.243675 -15.104838 12.464276 2.916774 -1.872272 -1.466379 -10.322911 -3.574734 3.896465 7.939628 -0.098468 2.918850 3.668474 0.067020 -0.029980 -0.027520 18.314024 -11.494871 3.262234 -4.375919 -0.463457 -5.276312 6.330683 -3.649310 1.204085 -0.124750 -3.819794 3.201945 0.038520 0.205890 0.074860 -4.575536 0.912879 -7.836240 15.100817 1.026248 11.903801 -6.064163 3.525274 10.913833 8.393762 0.138057 -11.188742 0.088060 -7.670742 40.239368 -5.224390 -8.837000 3.622290 -12.577943 -6.558580 6.414349 -25.161274 11.907399 -3.292947 1.812878 -3.906121 -0.361099 -4.014486 2.949195 -0.115300 0.182110 -0.195940 0.099060 -3.491990 11.312039 4.649333 -25.738952 13.584803 -8.557331 -67.949319 15.803551 -9.867404 2.646155 -1.802264 -0.014630 0.049100 0.007730 0.042910 
-0.336730 17.489420 -12.648860 -0.828104 31.762594 0.541522 -15.139943 12.489527 2.859985 -1.548117 -1.311530 -9.916427 -3.310135 3.957467 8.400678 -0.097095 2.979272 3.650872 0.064380 -0.032290 -0.034240 18.284653 -11.486340 3.284738 -4.341309 -0.639809 -4.184568 6.773463 -3.792025 1.077403 -0.147831 -3.952187 3.159494 0.044430 0.220720 0.074810 -4.553880 0.898348 -7.791653 14.613625 1.363759 11.907300 -3.879371 3.144451 11.180980 7.786792 0.203102 -10.851524 0.303574 -7.661794 41.108548 -5.415520 -8.966010 4.087830 -13.962992 -6.401693 6.176943 -25.316456 11.974067 -3.360221 2.596709 -4.503055 -0.365956 -4.022492 2.958196 -0.127290 0.193890 -0.208930 0.099910 -0.654716 11.169870 4.353485 -21.213762 16.157360 -8.513113 -80.347212 19.127709 -14.992497 2.563311 -1.791886 -0.018670 0.055860 0.014840 0.046690 
-0.350530 17.479350 -12.632810 -0.838448 34.270811 -0.221568 -15.198953 12.561536 2.816188 -1.133731 -1.103738 -9.422441 -3.163451 4.046290 8.668686 -0.091433 3.063334 3.631370 0.036640 -0.065230 -0.070360 18.228836 -11.472180 3.262765 -4.184832 -0.805650 -3.376432 6.973715 -3.978611 1.679671 -0.146937 -4.041722 3.133889 0.035900 0.249780 0.067300 -4.481671 0.768175 -7.731578 13.660453 1.473045 11.776301 -1.429154 2.376891 11.611014 6.988134 0.147855 -10.695976 0.292280 -7.230897 42.588602 -5.134510 -9.084710 5.332730 -14.441770 -6.299668 6.061829 -26.321933 11.719952 -3.564144 2.107358 -5.218474 -0.401091 -4.024001 2.960309 -0.133980 0.208090 -0.234610 0.102720 1.746496 11.147058 4.213127 -15.750040 18.728965 -7.832836 -92.377343 21.226336 -20.878674 2.489799 -1.787598 -0.037000 0.062430 0.034380 0.052070 
-0.354300 17.472170 -12.604450 -0.839484 35.866753 -0.717426 -15.240540 12.606955 2.758185 -0.891253 -0.928727 -9.154955 -2.807905 4.100577 9.112721 -0.085105 3.132336 3.617034 0.000560 -0.114430 -0.103350 18.196082 -11.458548 3.252664 -4.065979 -0.940890 -2.533935 7.140393 -4.134194 1.993963 -0.144037 -4.150167 3.100726 0.015760 0.286910 0.073820 -4.423702 0.684440 -7.651507 12.651403 1.715695 11.409832 0.997881 1.624799 11.783272 6.075052 -0.026223 -10.328337 0.136397 -6.705834 44.038260 -5.265050 -8.984110 6.986560 -14.871826 -5.379948 5.597192 -27.562971 11.762654 -4.056963 1.932287 -6.592297 -0.457334 -4.042744 2.970801 -0.152940 0.235540 -0.266410 0.100140 4.316527 10.436094 4.055784 -8.586681 21.226597 -5.639168 -105.386224 24.122813 -30.203015 2.409060 -1.785655 -0.049360 0.058330 0.059760 0.058300 
-0.363110 17.464970 -12.574540 -0.861722 36.911159 -1.253040 -15.268647 12.640257 2.678522 -0.592873 -0.750105 -9.028066 -2.345006 4.158963 9.806905 -0.094749 3.182431 3.599012 -0.005780 -0.128320 -0.101400 18.178508 -11.445579 3.262944 -4.030400 -1.072597 -1.546485 7.328296 -4.250216 1.947771 -0.161895 -4.265402 3.059039 0.017070 0.293200 0.073910 -4.388783 0.638244 -7.571772 11.890584 2.061813 11.218053 2.910682 1.070093 11.927127 5.324873 -0.135176 -9.781987 0.120682 -6.423518 45.489838 -5.826540 -8.826050 7.758480 -15.858811 -4.339265 5.022518 -28.000493 11.832109 -4.369905 2.748575 -7.402175 -0.502653 -4.054275 2.973783 -0.160090 0.246460 -0.279020 0.094150 7.094860 9.668964 3.761255 -1.109223 23.936072 -2.429722 -115.939918 26.498419 -40.825930 2.329065 -1.794991 -0.057490 0.057630 0.067320 0.052960 
